<svg version="1.1" xmlns="http://www.w3.org/2000/svg" viewBox="0 0 819.5 756.2244897959182" width="819.5" height="756.2244897959182">
  <!-- svg-source:excalidraw -->
  
  <defs>
    <style class="style-fonts">
      @font-face {
        font-family: "Virgil";
        src: url(".//dist/excalidraw-assets/Virgil.woff2");
      }
      @font-face {
        font-family: "Cascadia";
        src: url(".//dist/excalidraw-assets/Cascadia.woff2");
      }
    </style>
  </defs>
  <rect x="0" y="0" width="819.5" height="756.2244897959182" fill="#ffffff"></rect><g transform="translate(10 591) rotate(0 4 11.5)"><text x="0" y="18" font-family="Helvetica, Segoe UI Emoji" font-size="20px" fill="#000000" text-anchor="start" style="white-space: pre;" direction="ltr"></text></g><g stroke-linecap="round"><g transform="translate(69.21428571428578 662.4285714285714) rotate(0 348.14217130829184 -3.925100147807285)"><path d="M-1.04 0.88 C115.37 -0.33, 580.92 -5.58, 697.32 -7.23 M0.62 0.3 C117.04 -1.21, 580.7 -7.34, 696.77 -8.73" stroke="#000000" stroke-width="1" fill="none"></path></g><g transform="translate(69.21428571428578 662.4285714285714) rotate(0 348.14217130829184 -3.925100147807285)"><path d="M670.18 3.14 C676.42 1.31, 679.15 -2.58, 695.88 -9.65 M669.6 2.76 C678.78 -1.5, 687.28 -4.97, 697.63 -8.26" stroke="#000000" stroke-width="1" fill="none"></path></g><g transform="translate(69.21428571428578 662.4285714285714) rotate(0 348.14217130829184 -3.925100147807285)"><path d="M669.92 -17.38 C676.21 -15.03, 678.99 -14.73, 695.88 -9.65 M669.34 -17.76 C678.58 -14.89, 687.17 -11.25, 697.63 -8.26" stroke="#000000" stroke-width="1" fill="none"></path></g></g><mask></mask><g stroke-linecap="round"><g transform="translate(68.92857142857144 663.2857142857142) rotate(0 -0.72247978530757 -290.0460022963165)"><path d="M0.97 0.7 C0.62 -95.94, -1.22 -482.33, -1.45 -579.13 M0.02 0.02 C-0.55 -97, -2.31 -484.32, -2.41 -580.79" stroke="#000000" stroke-width="1" fill="none"></path></g><g transform="translate(68.92857142857144 663.2857142857142) rotate(0 -0.72247978530757 -290.0460022963165)"><path d="M9.1 -552.68 C5.54 -560.87, 0.27 -570.78, -2.51 -581.25 M7.71 -553.05 C3.51 -564.01, -1.01 -574.43, -2.13 -579.82" stroke="#000000" stroke-width="1" fill="none"></path></g><g transform="translate(68.92857142857144 663.2857142857142) rotate(0 -0.72247978530757 -290.0460022963165)"><path d="M-11.42 -552.61 C-7.68 -560.99, -5.65 -570.92, -2.51 -581.25 M-12.81 -552.98 C-8.96 -564.16, -5.44 -574.61, -2.13 -579.82" stroke="#000000" stroke-width="1" fill="none"></path></g></g><mask></mask><g transform="translate(777.5 621.4285714285713) rotate(0 16 33.5)"><text x="0" y="47" font-family="Virgil, Segoe UI Emoji" font-size="53.33333333333332px" fill="#000000" text-anchor="start" style="white-space: pre;" direction="ltr">x</text></g><g transform="translate(50.357142857142776 10) rotate(0 13.35714285714289 30.357142857142918)"><text x="0" y="42.714285714285865" font-family="Virgil, Segoe UI Emoji" font-size="48.57142857142868px" fill="#000000" text-anchor="start" style="white-space: pre;" direction="ltr">y</text></g><g stroke-linecap="round"><g transform="translate(70.35714285714289 663.2857142857142) rotate(0 256.53590360609684 -275.5356543333402)"><path d="M0.32 0.77 C50.57 -22.23, 226.69 -86.04, 301.77 -138.9 C376.85 -191.75, 415.53 -247.52, 450.81 -316.34 C486.09 -385.17, 502.95 -512.77, 513.47 -551.84 M-0.97 0.12 C49.13 -22.62, 225.89 -84.46, 301.01 -137.53 C376.12 -190.6, 414.22 -249.36, 449.72 -318.27 C485.23 -387.17, 503.49 -512.32, 514.04 -550.95" stroke="#000000" stroke-width="1" fill="none"></path></g></g><mask></mask><g transform="translate(488.92857142857144 660) rotate(0 12.071428571428555 43.11224489795913)"><text x="0" y="60.224489795918274" font-family="Virgil, Segoe UI Emoji" font-size="68.9795918367346px" fill="#000000" text-anchor="start" style="white-space: pre;" direction="ltr">1</text></g><g stroke-linecap="round"><g transform="translate(501.7857142857142 631.8571428571429) rotate(0 0.44937610978251996 13.285887508944512)"><path d="M0.98 1.12 C0.95 5.24, 1.04 20.3, 0.71 24.34 M0.03 0.66 C-0.17 5.03, -0.08 22.09, 0.13 25.91" stroke="#000000" stroke-width="1" fill="none"></path></g></g><mask></mask><g stroke-linecap="round"><g transform="translate(501.7857142857142 660.4285714285713) rotate(0 1.110091474632327 -143.08728516549002)"><path d="M-0.1 -0.63 C0.23 -48.5, 1.03 -238.58, 1.72 -286.2 M-1.61 1.66 C-0.9 -46.03, 2.92 -239.5, 3.83 -287.83" stroke="#a61e4d" stroke-width="1" fill="none"></path></g></g><mask></mask><g stroke-linecap="round"><g transform="translate(458.92857142857133 443.28571428571433) rotate(0 0.05256240740419571 105.55917953966117)"><path d="M-1.03 -0.28 C-0.81 35.05, 1.12 177.24, 1.13 212.58 M0.63 -1.47 C0.8 33.5, 0.65 175.88, 0.78 211.07" stroke="#a61e4d" stroke-width="1" fill="none"></path></g></g><mask></mask><g stroke-linecap="round"><g transform="translate(460.3571428571429 443.28571428571433) rotate(0 19.627830772176935 -0.8895184547773489)"><path d="M-0.71 0.33 C5.7 0.04, 30.97 -1.95, 37.7 -2.11 M1.13 -0.54 C7.98 -0.65, 33.56 -0.6, 39.96 -0.93" stroke="#a61e4d" stroke-width="1" fill="none"></path></g></g><mask></mask><g stroke-linecap="round"><g transform="translate(431.7857142857142 477.57142857142856) rotate(0 0.04156981756443656 90.06965802165219)"><path d="M-0.84 0.63 C-0.78 30.56, 0.46 150.41, 0.73 180.22 M0.92 -0.08 C0.85 29.4, 0.25 148.11, 0.17 178.21" stroke="#a61e4d" stroke-width="1" fill="none"></path></g></g><mask></mask><g stroke-linecap="round"><g transform="translate(431.7857142857142 477.57142857142856) rotate(0 13.161342117667346 0.663410273300812)"><path d="M-1.12 -0.88 C3.02 -0.44, 20.69 1.9, 25.07 2.21 M0.49 1.27 C5 1.41, 23.51 0.37, 27.45 0.5" stroke="#a61e4d" stroke-width="1" fill="none"></path></g></g><mask></mask><g stroke-linecap="round"><g transform="translate(397.5 510.42857142857144) rotate(0 0.08179504296759887 75.48172322303456)"><path d="M0.3 0.27 C0.49 25.47, 1.35 125.49, 1.12 150.53 M-1 -0.63 C-0.87 24.75, 0.38 126.27, 0.76 151.59" stroke="#a61e4d" stroke-width="1" fill="none"></path></g></g><mask></mask><g stroke-linecap="round"><g transform="translate(397.5 509) rotate(0 16.954994575435137 -0.38573861141307475)"><path d="M0.14 -1.14 C6.05 -1.3, 29.47 -1.61, 35.16 -1.66 M-1.25 0.88 C4.61 0.97, 28.88 -0.08, 34.68 -0.24" stroke="#a61e4d" stroke-width="1" fill="none"></path></g></g><mask></mask><g stroke-linecap="round"><g transform="translate(363.2142857142858 533.2857142857143) rotate(0 -1.1922318967854153 64.06568681008247)"><path d="M-0.15 -0.11 C-0.65 21.42, -1.2 107.99, -1.79 129.34 M-1.69 -1.21 C-2.35 19.96, -2.25 105.92, -2.18 127.62" stroke="#a61e4d" stroke-width="1" fill="none"></path></g></g><mask></mask><g stroke-linecap="round"><g transform="translate(360.3571428571429 530.4285714285714) rotate(0 19.70388539010719 1.4134011347181001)"><path d="M1.15 0.99 C7.72 1.19, 32.92 2.43, 39.11 2.35 M0.29 0.47 C6.79 0.85, 32.26 0.57, 38.45 0.72" stroke="#a61e4d" stroke-width="1" fill="none"></path></g></g><mask></mask><g stroke-linecap="round"><g transform="translate(324.6428571428571 554.7142857142858) rotate(0 0.8710204751364472 54.029355308307046)"><path d="M-0.33 -0.98 C0.2 17.19, 1.59 90.72, 2.07 109.04 M1.7 1.11 C2.22 18.93, 1.34 89.55, 1.46 107.17" stroke="#a61e4d" stroke-width="1" fill="none"></path></g></g><mask></mask><g stroke-linecap="round"><g transform="translate(327.5 554.7142857142858) rotate(0 18.774293731395915 0.35365424448708893)"><path d="M0.34 -0.87 C6.57 -0.63, 32.07 -0.1, 38.49 0.39 M-0.94 1.29 C5.03 1.73, 30.96 1.58, 37.5 1.39" stroke="#a61e4d" stroke-width="1" fill="none"></path></g></g><mask></mask><g stroke-linecap="round"><g transform="translate(277.5 580.4285714285714) rotate(0 0.8399284231447268 37.533434264531465)"><path d="M1.13 -0.37 C1.21 12.53, 1.38 64.04, 1.46 76.67 M0.27 -1.61 C0.1 11.02, 0.42 62.02, 0.53 75.06" stroke="#a61e4d" stroke-width="1" fill="none"></path></g></g><mask></mask><g stroke-linecap="round"><g transform="translate(280.3571428571429 579) rotate(0 22.038380430948166 0.3440600999118857)"><path d="M0.26 0.75 C7.74 0.79, 37.62 -0.25, 45.14 -0.34 M-1.06 0.09 C6.19 0.36, 36.31 0.76, 43.88 1.02" stroke="#a61e4d" stroke-width="1" fill="none"></path></g></g><mask></mask><g stroke-linecap="round"><g transform="translate(243.21428571428578 599) rotate(0 -0.14957925424386076 29.265532683776698)"><path d="M-0.68 -0.22 C-0.78 9.65, -0.6 48.77, -0.83 58.94 M1.16 -1.39 C0.98 8.62, -0.74 49.87, -1.46 59.92" stroke="#a61e4d" stroke-width="1" fill="none"></path></g></g><mask></mask><g stroke-linecap="round"><g transform="translate(241.78571428571422 597.5714285714286) rotate(0 16.86370875032486 -1.7382450634879234)"><path d="M0.9 -0.16 C6.21 -0.73, 26.54 -3.05, 31.7 -3.32 M-0.08 -1.29 C5.59 -1.71, 28.08 -1.65, 33.81 -2.02" stroke="#a61e4d" stroke-width="1" fill="none"></path></g></g><mask></mask><g stroke-linecap="round"><g transform="translate(203.21428571428578 610.4285714285714) rotate(0 -0.19452476494944904 25.539356839102055)"><path d="M-0.07 0.1 C-0.19 8.67, -0.89 42.21, -1.01 50.78 M-1.56 -0.9 C-1.3 7.88, 0.62 43.01, 1.18 51.97" stroke="#a61e4d" stroke-width="1" fill="none"></path></g></g><mask></mask><g stroke-linecap="round"><g transform="translate(203.21428571428578 614.7142857142858) rotate(0 20.778402164302975 -2.297605079136403)"><path d="M-0.04 -0.01 C6.73 -0.42, 33.74 -1.95, 40.73 -2.6 M-1.52 -1.06 C5.63 -1.85, 35.92 -4.24, 43.08 -4.58" stroke="#a61e4d" stroke-width="1" fill="none"></path></g></g><mask></mask><g stroke-linecap="round"><g transform="translate(168.9285714285715 621.8571428571429) rotate(0 0.23976997322401417 19.989586106729703)"><path d="M-0.66 -1.07 C-0.68 5.57, 0.05 32.65, 0.16 39.68 M1.19 0.99 C1.01 7.81, -0.38 34.65, -0.71 41.05" stroke="#a61e4d" stroke-width="1" fill="none"></path></g></g><mask></mask><g stroke-linecap="round"><g transform="translate(168.9285714285715 624.7142857142858) rotate(0 16.700011593157313 -0.5483127443703921)"><path d="M0.17 0.43 C6.03 0.65, 29.05 0.55, 34.6 0.31 M-1.2 -0.39 C4.57 -0.46, 27.63 -1.68, 33.82 -1.65" stroke="#a61e4d" stroke-width="1" fill="none"></path></g></g><mask></mask></svg>