<svg version="1.1" xmlns="http://www.w3.org/2000/svg" xmlns:xlink="http://www.w3.org/1999/xlink" width="635" height="435"><defs><clipPath id="ebNZvZcUgpwd"><path fill="none" stroke="none" d=" M 0 0 L 635 0 L 635 435 L 0 435 L 0 0 Z"/></clipPath></defs><g transform="scale(1,1)" clip-path="url(#ebNZvZcUgpwd)"><g><rect fill="rgb(255,255,255)" stroke="none" x="0" y="0" width="635" height="435" fill-opacity="1"/><path fill="rgb(153,51,0)" stroke="none" paint-order="stroke fill markers" fill-rule="evenodd" d=" M 426.15592312467936 386.73946460598825 L 426.15592312467936 76.4257748694041 L 115.84223338809574 76.4257748694041 Z" fill-opacity="0.09803921568627451"/><path fill="rgb(0,100,0)" stroke="none" paint-order="stroke fill markers" fill-rule="evenodd" d=" M 426.15592312467936 76.4257748694041 L 404.94271968908436 76.4257748694041 L 404.94271968908294 97.63897830500055 L 426.15592312467936 97.63897830499913 L 426.15592312467936 76.4257748694041" fill-opacity="0.09803921568627451"/><path fill="none" stroke="rgb(0,100,0)" paint-order="fill stroke markers" d=" M 426.15592312467936 76.4257748694041 L 404.94271968908436 76.4257748694041 L 404.94271968908294 97.63897830500055 L 426.15592312467936 97.63897830499913 L 426.15592312467936 76.4257748694041" stroke-opacity="0.6980392156862745" stroke-linecap="round" stroke-linejoin="round" stroke-miterlimit="10" stroke-width="2.5"/><path fill="none" stroke="rgb(153,51,0)" paint-order="fill stroke markers" d=" M 426.15592312467936 386.73946460598825 L 426.15592312467936 76.4257748694041" stroke-opacity="0.6980392156862745" stroke-linecap="round" stroke-linejoin="round" stroke-miterlimit="10" stroke-width="2.5"/><path fill="none" stroke="rgb(153,51,0)" paint-order="fill stroke markers" d=" M 426.15592312467936 76.4257748694041 L 115.84223338809574 76.4257748694041" stroke-opacity="0.6980392156862745" stroke-linecap="round" stroke-linejoin="round" stroke-miterlimit="10" stroke-width="2.5"/><path fill="none" stroke="rgb(153,51,0)" paint-order="fill stroke markers" d=" M 115.84223338809574 76.4257748694041 L 426.15592312467936 386.73946460598825" stroke-opacity="0.6980392156862745" stroke-linecap="round" stroke-linejoin="round" stroke-miterlimit="10" stroke-width="2.5"/><path fill="rgb(77,77,255)" stroke="none" paint-order="stroke fill markers" d=" M 120.84223338809574 76.4257748694041 C 120.84223338809574 79.18719861855806 118.6036571372497 81.4257748694041 115.84223338809574 81.4257748694041 C 113.08080963894177 81.4257748694041 110.84223338809574 79.18719861855806 110.84223338809574 76.4257748694041 C 110.84223338809574 73.66435112025013 113.08080963894177 71.4257748694041 115.84223338809574 71.4257748694041 C 118.6036571372497 71.4257748694041 120.84223338809574 73.66435112025013 120.84223338809574 76.4257748694041 Z" fill-opacity="1"/><path fill="none" stroke="rgb(0,0,0)" paint-order="fill stroke markers" d=" M 120.84223338809574 76.4257748694041 C 120.84223338809574 79.18719861855806 118.6036571372497 81.4257748694041 115.84223338809574 81.4257748694041 C 113.08080963894177 81.4257748694041 110.84223338809574 79.18719861855806 110.84223338809574 76.4257748694041 C 110.84223338809574 73.66435112025013 113.08080963894177 71.4257748694041 115.84223338809574 71.4257748694041 C 118.6036571372497 71.4257748694041 120.84223338809574 73.66435112025013 120.84223338809574 76.4257748694041 Z" stroke-opacity="1" stroke-linecap="round" stroke-linejoin="round" stroke-miterlimit="10"/><text fill="rgb(77,77,255)" stroke="none" font-family="geogebra-sans-serif, sans-serif" font-size="32px" font-style="normal" font-weight="normal" text-decoration="normal" x="120" y="66" text-anchor="start" dominant-baseline="alphabetic" fill-opacity="1">A</text><text fill="none" stroke="rgb(255,255,255)" font-family="geogebra-sans-serif, sans-serif" font-size="32px" font-style="normal" font-weight="normal" text-decoration="normal" x="120" y="66" text-anchor="start" dominant-baseline="alphabetic" stroke-opacity="1" stroke-linejoin="bevel" stroke-miterlimit="10" stroke-width="3">A</text><text fill="rgb(77,77,255)" stroke="none" font-family="geogebra-sans-serif, sans-serif" font-size="32px" font-style="normal" font-weight="normal" text-decoration="normal" x="120" y="66" text-anchor="start" dominant-baseline="alphabetic" fill-opacity="1">A</text><path fill="rgb(77,77,255)" stroke="none" paint-order="stroke fill markers" d=" M 431.15592312467936 76.4257748694041 C 431.15592312467936 79.18719861855806 428.9173468738333 81.4257748694041 426.15592312467936 81.4257748694041 C 423.3944993755254 81.4257748694041 421.15592312467936 79.18719861855806 421.15592312467936 76.4257748694041 C 421.15592312467936 73.66435112025013 423.3944993755254 71.4257748694041 426.15592312467936 71.4257748694041 C 428.9173468738333 71.4257748694041 431.15592312467936 73.66435112025013 431.15592312467936 76.4257748694041 Z" fill-opacity="1"/><path fill="none" stroke="rgb(0,0,0)" paint-order="fill stroke markers" d=" M 431.15592312467936 76.4257748694041 C 431.15592312467936 79.18719861855806 428.9173468738333 81.4257748694041 426.15592312467936 81.4257748694041 C 423.3944993755254 81.4257748694041 421.15592312467936 79.18719861855806 421.15592312467936 76.4257748694041 C 421.15592312467936 73.66435112025013 423.3944993755254 71.4257748694041 426.15592312467936 71.4257748694041 C 428.9173468738333 71.4257748694041 431.15592312467936 73.66435112025013 431.15592312467936 76.4257748694041 Z" stroke-opacity="1" stroke-linecap="round" stroke-linejoin="round" stroke-miterlimit="10"/><text fill="rgb(77,77,255)" stroke="none" font-family="geogebra-sans-serif, sans-serif" font-size="32px" font-style="normal" font-weight="normal" text-decoration="normal" x="430" y="66" text-anchor="start" dominant-baseline="alphabetic" fill-opacity="1">B</text><text fill="none" stroke="rgb(255,255,255)" font-family="geogebra-sans-serif, sans-serif" font-size="32px" font-style="normal" font-weight="normal" text-decoration="normal" x="430" y="66" text-anchor="start" dominant-baseline="alphabetic" stroke-opacity="1" stroke-linejoin="bevel" stroke-miterlimit="10" stroke-width="3">B</text><text fill="rgb(77,77,255)" stroke="none" font-family="geogebra-sans-serif, sans-serif" font-size="32px" font-style="normal" font-weight="normal" text-decoration="normal" x="430" y="66" text-anchor="start" dominant-baseline="alphabetic" fill-opacity="1">B</text><path fill="rgb(77,77,255)" stroke="none" paint-order="stroke fill markers" d=" M 431.15592312467936 386.73946460598825 C 431.15592312467936 389.5008883551422 428.9173468738333 391.73946460598825 426.15592312467936 391.73946460598825 C 423.3944993755254 391.73946460598825 421.15592312467936 389.5008883551422 421.15592312467936 386.73946460598825 C 421.15592312467936 383.9780408568343 423.3944993755254 381.73946460598825 426.15592312467936 381.73946460598825 C 428.9173468738333 381.73946460598825 431.15592312467936 383.9780408568343 431.15592312467936 386.73946460598825 Z" fill-opacity="1"/><path fill="none" stroke="rgb(0,0,0)" paint-order="fill stroke markers" d=" M 431.15592312467936 386.73946460598825 C 431.15592312467936 389.5008883551422 428.9173468738333 391.73946460598825 426.15592312467936 391.73946460598825 C 423.3944993755254 391.73946460598825 421.15592312467936 389.5008883551422 421.15592312467936 386.73946460598825 C 421.15592312467936 383.9780408568343 423.3944993755254 381.73946460598825 426.15592312467936 381.73946460598825 C 428.9173468738333 381.73946460598825 431.15592312467936 383.9780408568343 431.15592312467936 386.73946460598825 Z" stroke-opacity="1" stroke-linecap="round" stroke-linejoin="round" stroke-miterlimit="10"/><text fill="rgb(77,77,255)" stroke="none" font-family="geogebra-sans-serif, sans-serif" font-size="32px" font-style="normal" font-weight="normal" text-decoration="normal" x="430" y="377" text-anchor="start" dominant-baseline="alphabetic" fill-opacity="1">C</text><text fill="none" stroke="rgb(255,255,255)" font-family="geogebra-sans-serif, sans-serif" font-size="32px" font-style="normal" font-weight="normal" text-decoration="normal" x="430" y="377" text-anchor="start" dominant-baseline="alphabetic" stroke-opacity="1" stroke-linejoin="bevel" stroke-miterlimit="10" stroke-width="3">C</text><text fill="rgb(77,77,255)" stroke="none" font-family="geogebra-sans-serif, sans-serif" font-size="32px" font-style="normal" font-weight="normal" text-decoration="normal" x="430" y="377" text-anchor="start" dominant-baseline="alphabetic" fill-opacity="1">C</text><text fill="rgb(0,0,0)" stroke="none" font-family="geogebra-sans-serif, sans-serif" font-size="32px" font-style="normal" font-weight="normal" text-decoration="normal" x="434" y="215" text-anchor="start" dominant-baseline="alphabetic" fill-opacity="1">a</text><text fill="rgb(0,0,0)" stroke="none" font-family="geogebra-sans-serif, sans-serif" font-size="32px" font-style="normal" font-weight="normal" text-decoration="normal" x="261" y="61" text-anchor="start" dominant-baseline="alphabetic" fill-opacity="1">b</text><text fill="rgb(0,0,0)" stroke="none" font-family="geogebra-sans-serif, sans-serif" font-size="32px" font-style="normal" font-weight="normal" text-decoration="normal" x="246" y="253" text-anchor="start" dominant-baseline="alphabetic" fill-opacity="1">c</text></g></g></svg>