<svg version="1.1" xmlns="http://www.w3.org/2000/svg" viewBox="0 0 669.2344411164522 486.6249388486147" width="669.2344411164522" height="486.6249388486147">
  <!-- svg-source:excalidraw -->
  
  <defs>
    <style class="style-fonts">
      @font-face {
        font-family: "Virgil";
        src: url(".//dist/excalidraw-assets/Virgil.woff2");
      }
      @font-face {
        font-family: "Cascadia";
        src: url(".//dist/excalidraw-assets/Cascadia.woff2");
      }
    </style>
  </defs>
  <rect x="0" y="0" width="669.2344411164522" height="486.6249388486147" fill="#ffffff"></rect><g stroke-linecap="round"><g transform="translate(223 358.6249388486147) rotate(0 0.7098027691995412 -173.778774574399)"><path d="M0.73 1.07 C0.83 -57.06, 1.86 -290.38, 1.77 -348.62 M-0.35 0.58 C-0.43 -57.41, 0.73 -289.43, 1.22 -347.42" stroke="#000000" stroke-width="1" fill="none"></path></g><g transform="translate(223 358.6249388486147) rotate(0 0.7098027691995412 -173.778774574399)"><path d="M13.08 -317.88 C6.26 -331.6, 2.61 -342.01, 0.68 -345.84 M10.48 -319.37 C9.09 -326.67, 5.68 -333.08, 1.49 -346.47" stroke="#000000" stroke-width="1" fill="none"></path></g><g transform="translate(223 358.6249388486147) rotate(0 0.7098027691995412 -173.778774574399)"><path d="M-7.44 -318.01 C-6.18 -331.8, -1.74 -342.16, 0.68 -345.84 M-10.04 -319.5 C-6.42 -326.88, -4.82 -333.27, 1.49 -346.47" stroke="#000000" stroke-width="1" fill="none"></path></g></g><mask></mask><g stroke-linecap="round"><g transform="translate(222 357.6249388486147) rotate(0 218.31063286483754 -1.7347190795140364)"><path d="M0.55 0.57 C73.36 0.26, 364.3 -1.56, 437.23 -2.29 M-0.61 -0.17 C72.02 -0.8, 363.3 -3.59, 436.41 -4.04" stroke="#000000" stroke-width="1" fill="none"></path></g><g transform="translate(222 357.6249388486147) rotate(0 218.31063286483754 -1.7347190795140364)"><path d="M409.26 6.84 C418.91 4.78, 425.78 -1.6, 436.69 -5.79 M408.72 6.91 C415.12 3.93, 421.82 2.09, 436.26 -4.1" stroke="#000000" stroke-width="1" fill="none"></path></g><g transform="translate(222 357.6249388486147) rotate(0 218.31063286483754 -1.7347190795140364)"><path d="M409.09 -13.68 C418.73 -8.89, 425.66 -8.41, 436.69 -5.79 M408.55 -13.61 C415.15 -11.91, 421.88 -9.05, 436.26 -4.1" stroke="#000000" stroke-width="1" fill="none"></path></g></g><mask></mask><g stroke-linecap="round"><g transform="translate(224 245.6249388486147) rotate(0 82.58155439198015 0.8382357805366212)"><path d="M-0.28 0.96 C27.19 1.16, 137.79 0.73, 165.44 0.67" stroke="#000000" stroke-width="1.5" fill="none" stroke-dasharray="1.5 7"></path></g></g><mask></mask><g stroke-linecap="round"><g transform="translate(391 248.6249388486147) rotate(0 -1.0404141686807975 56.974415186047565)"><path d="M-1.12 0.96 C-1.16 19.91, -1.2 94.13, -0.93 112.99" stroke="#000000" stroke-width="1.5" fill="none" stroke-dasharray="1.5 7"></path></g></g><mask></mask><g stroke-linecap="round"><g transform="translate(388 247.6249388486147) rotate(0 68.19624765217304 -79.82346369378733)"><path d="M-0.79 -1.15 C22.09 -28, 114.1 -133.87, 137.19 -160.51 M0.99 0.87 C23.74 -25.89, 113.61 -132.39, 136.33 -159.24" stroke="#000000" stroke-width="1" fill="none"></path></g></g><mask></mask><g transform="translate(198 236.6249388486147) rotate(0 6.5 11.5)"><text x="0" y="18" font-family="Helvetica, Segoe UI Emoji" font-size="20px" fill="#000000" text-anchor="start" style="white-space: pre;" direction="ltr">1</text></g><g transform="translate(389 381.6249388486147) rotate(0 6.5 11.5)"><text x="0" y="18" font-family="Helvetica, Segoe UI Emoji" font-size="20px" fill="#000000" text-anchor="start" style="white-space: pre;" direction="ltr">2</text></g><g transform="translate(294 379.6249388486147) rotate(0 6.5 11.5)"><text x="0" y="18" font-family="Helvetica, Segoe UI Emoji" font-size="20px" fill="#000000" text-anchor="start" style="white-space: pre;" direction="ltr">1</text></g><g stroke-linecap="round"><g transform="translate(527 88.6249388486147) rotate(0 -1.0235988860222278 133.99518630206583)"><path d="M-0.94 0.96 C-1.19 45.41, -1.12 222.61, -0.98 267.03" stroke="#000000" stroke-width="1.5" fill="none" stroke-dasharray="1.5 7"></path></g></g><mask></mask><g stroke-linecap="round"><g transform="translate(524 89.6249388486147) rotate(0 -149.93825552761555 -1.7325735300779428)"><path d="M-0.95 -0.13 C-50.79 -0.8, -249.06 -2.68, -298.93 -3.33" stroke="#000000" stroke-width="1.5" fill="none" stroke-dasharray="1.5 7"></path></g></g><mask></mask><g transform="translate(202 74.6249388486147) rotate(0 6.5 11.5)"><text x="0" y="18" font-family="Helvetica, Segoe UI Emoji" font-size="20px" fill="#000000" text-anchor="start" style="white-space: pre;" direction="ltr">3</text></g><g transform="translate(198 162.6249388486147) rotate(0 6.5 11.5)"><text x="0" y="18" font-family="Helvetica, Segoe UI Emoji" font-size="20px" fill="#000000" text-anchor="start" style="white-space: pre;" direction="ltr">2</text></g><g transform="translate(463 381.6249388486147) rotate(0 6.5 11.5)"><text x="0" y="18" font-family="Helvetica, Segoe UI Emoji" font-size="20px" fill="#000000" text-anchor="start" style="white-space: pre;" direction="ltr">3</text></g><g transform="translate(528 381.6249388486147) rotate(0 6.5 11.5)"><text x="0" y="18" font-family="Helvetica, Segoe UI Emoji" font-size="20px" fill="#000000" text-anchor="start" style="white-space: pre;" direction="ltr">4</text></g><g stroke-linecap="round"><g transform="translate(386 251.6249388486147) rotate(0 -43.26282332993577 52.808796139354826)"><path d="M-0.52 -1.06 C-15.18 16.39, -73.32 87.37, -87.93 105.09 M1.4 1 C-12.88 18.63, -71.15 89.05, -85.7 106.68" stroke="#a61e4d" stroke-width="1" fill="none"></path></g></g><mask></mask><g stroke-linecap="round"><g transform="translate(334 305.6249388486147) rotate(0 -94.22757151476571 39.84514633222949)"><path d="M0.11 0.58 C-31.31 13.99, -156.3 66.94, -187.75 79.85 M-1.29 -0.16 C-32.91 12.97, -157.17 65.01, -188.56 78.17" stroke="#a61e4d" stroke-width="1" fill="none"></path></g><g transform="translate(334 305.6249388486147) rotate(0 -94.22757151476571 39.84514633222949)"><path d="M-165.55 58.23 C-173.19 64.24, -184.27 71.89, -187.83 78.44 M-166.69 58.68 C-172.46 63.77, -178.2 68.77, -188.56 77.91" stroke="#a61e4d" stroke-width="1" fill="none"></path></g><g transform="translate(334 305.6249388486147) rotate(0 -94.22757151476571 39.84514633222949)"><path d="M-157.63 77.16 C-168.04 76.32, -181.98 77.13, -187.83 78.44 M-158.76 77.6 C-166.43 77.74, -174.26 77.77, -188.56 77.91" stroke="#a61e4d" stroke-width="1" fill="none"></path></g></g><mask></mask><g transform="translate(10 356.6249388486147) rotate(0 50.5 60)"><text x="0" y="23" font-family="Virgil, Segoe UI Emoji" font-size="20px" fill="#a61e4d" text-anchor="start" style="white-space: pre;" direction="ltr">实际上这里</text><text x="0" y="53" font-family="Virgil, Segoe UI Emoji" font-size="20px" fill="#a61e4d" text-anchor="start" style="white-space: pre;" direction="ltr">没画出来，</text><text x="0" y="83" font-family="Virgil, Segoe UI Emoji" font-size="20px" fill="#a61e4d" text-anchor="start" style="white-space: pre;" direction="ltr">加速度a不</text><text x="0" y="113" font-family="Virgil, Segoe UI Emoji" font-size="20px" fill="#a61e4d" text-anchor="start" style="white-space: pre;" direction="ltr">可能突变</text></g></svg>