<svg version="1.1" xmlns="http://www.w3.org/2000/svg" viewBox="0 0 482.2344411164522 399.6249388486147" width="482.2344411164522" height="399.6249388486147">
  <!-- svg-source:excalidraw -->
  
  <defs>
    <style class="style-fonts">
      @font-face {
        font-family: "Virgil";
        src: url(".//dist/excalidraw-assets/Virgil.woff2");
      }
      @font-face {
        font-family: "Cascadia";
        src: url(".//dist/excalidraw-assets/Cascadia.woff2");
      }
    </style>
  </defs>
  <rect x="0" y="0" width="482.2344411164522" height="399.6249388486147" fill="#ffffff"></rect><g stroke-linecap="round"><g transform="translate(35 358.6249388486147) rotate(0 0.7098027691995412 -173.778774574399)"><path d="M0.73 1.07 C0.83 -57.06, 1.86 -290.38, 1.77 -348.62 M-0.35 0.58 C-0.43 -57.41, 0.73 -289.43, 1.22 -347.42" stroke="#000000" stroke-width="1" fill="none"></path></g><g transform="translate(35 358.6249388486147) rotate(0 0.7098027691995412 -173.778774574399)"><path d="M13.08 -317.88 C6.26 -331.6, 2.61 -342.01, 0.68 -345.84 M10.48 -319.37 C9.09 -326.67, 5.68 -333.08, 1.49 -346.47" stroke="#000000" stroke-width="1" fill="none"></path></g><g transform="translate(35 358.6249388486147) rotate(0 0.7098027691995412 -173.778774574399)"><path d="M-7.44 -318.01 C-6.18 -331.8, -1.74 -342.16, 0.68 -345.84 M-10.04 -319.5 C-6.42 -326.88, -4.82 -333.27, 1.49 -346.47" stroke="#000000" stroke-width="1" fill="none"></path></g></g><mask></mask><g stroke-linecap="round"><g transform="translate(35 357.6249388486147) rotate(0 218.31063286483754 -1.7347190795140364)"><path d="M0.55 0.57 C73.36 0.26, 364.3 -1.56, 437.23 -2.29 M-0.61 -0.17 C72.02 -0.8, 363.3 -3.59, 436.41 -4.04" stroke="#000000" stroke-width="1" fill="none"></path></g><g transform="translate(35 357.6249388486147) rotate(0 218.31063286483754 -1.7347190795140364)"><path d="M409.26 6.84 C418.91 4.78, 425.78 -1.6, 436.69 -5.79 M408.72 6.91 C415.12 3.93, 421.82 2.09, 436.26 -4.1" stroke="#000000" stroke-width="1" fill="none"></path></g><g transform="translate(35 357.6249388486147) rotate(0 218.31063286483754 -1.7347190795140364)"><path d="M409.09 -13.68 C418.73 -8.89, 425.66 -8.41, 436.69 -5.79 M408.55 -13.61 C415.15 -11.91, 421.88 -9.05, 436.26 -4.1" stroke="#000000" stroke-width="1" fill="none"></path></g></g><mask></mask><g stroke-linecap="round"><g transform="translate(36 357.6249388486147) rotate(0 153.31073844134806 -127.80553693950642)"><path d="M-1.11 0.77 C50.14 -41.67, 256.57 -212.01, 307.73 -254.86 M0.5 0.12 C51.65 -42.59, 255.9 -213.83, 307.17 -256.38" stroke="#000000" stroke-width="1" fill="none"></path></g></g><mask></mask><g stroke-linecap="round"><g transform="translate(345 104.6249388486147) rotate(0 1.3816616743803252 127.29068401157855)"><path d="M-0.07 -0.75 C0.51 41.76, 2.32 212.65, 2.83 255.33" stroke="#000000" stroke-width="1.5" fill="none" stroke-dasharray="1.5 7"></path></g></g><mask></mask><g stroke-linecap="round"><g transform="translate(345 104.6249388486147) rotate(0 -155.01629822552206 -1.1799341488956543)"><path d="M-0.58 -1.05 C-51.99 -1.4, -257.96 -1.33, -309.45 -1.21" stroke="#000000" stroke-width="1.5" fill="none" stroke-dasharray="1.5 7"></path></g></g><mask></mask><g transform="translate(10 95.6249388486147) rotate(0 11 12.5)"><text x="0" y="18" font-family="Virgil, Segoe UI Emoji" font-size="20px" fill="#000000" text-anchor="start" style="white-space: pre;" direction="ltr">12</text></g><g transform="translate(355 364.6249388486147) rotate(0 7.5 12.5)"><text x="0" y="18" font-family="Virgil, Segoe UI Emoji" font-size="20px" fill="#000000" text-anchor="start" style="white-space: pre;" direction="ltr">4</text></g></svg>