<svg version="1.1" xmlns="http://www.w3.org/2000/svg" viewBox="0 0 339.27550597034366 255.74866211013145" width="339.27550597034366" height="255.74866211013145">
  <!-- svg-source:excalidraw -->
  
  <defs>
    <style class="style-fonts">
      @font-face {
        font-family: "Virgil";
        src: url(".//dist/excalidraw-assets/Virgil.woff2");
      }
      @font-face {
        font-family: "Cascadia";
        src: url(".//dist/excalidraw-assets/Cascadia.woff2");
      }
    </style>
  </defs>
  <rect x="0" y="0" width="339.27550597034366" height="255.74866211013145" fill="#ffffff"></rect><g stroke-linecap="round" transform="translate(10 10) rotate(0 159.63775298517183 117.87433105506572)"><path d="M32 0 M32 0 C101.71 -0.82, 173.02 0.05, 287.28 0 M32 0 C86.88 -2.1, 141.91 -1.89, 287.28 0 M287.28 0 C309.07 -0.77, 317.68 11.83, 319.28 32 M287.28 0 C309.57 -1.47, 319.09 10.9, 319.28 32 M319.28 32 C321.67 89.75, 320.14 146.77, 319.28 203.75 M319.28 32 C320.91 77.15, 320.1 123.26, 319.28 203.75 M319.28 203.75 C318.36 224.47, 309.92 234.66, 287.28 235.75 M319.28 203.75 C321.24 225.65, 306.45 234.24, 287.28 235.75 M287.28 235.75 C190.38 236.81, 91.83 236.67, 32 235.75 M287.28 235.75 C205.25 236.18, 121.49 236.38, 32 235.75 M32 235.75 C9.39 237.72, 0.13 226.66, 0 203.75 M32 235.75 C11.41 233.92, -0.14 226.55, 0 203.75 M0 203.75 C-3.46 164.24, -2.27 123.22, 0 32 M0 203.75 C-2.2 142.8, -2.41 83.04, 0 32 M0 32 C-1.98 10.16, 11.91 1.89, 32 0 M0 32 C-0.25 12.35, 9.49 1.42, 32 0" stroke="#000000" stroke-width="1" fill="none"></path></g><g stroke-linecap="round" transform="translate(66.98560375509803 53.714983702540934) rotate(0 43.71498370254092 42.934358993567)"><path d="M61.52 3.84 C68.69 6.2, 75.44 12.86, 79.79 19.25 C84.15 25.65, 87.47 34.42, 87.65 42.22 C87.84 50.02, 85 59.66, 80.91 66.08 C76.83 72.49, 70.13 77.57, 63.15 80.71 C56.18 83.85, 46.83 85.69, 39.08 84.9 C31.34 84.11, 22.74 80.76, 16.69 75.96 C10.64 71.16, 5.45 63.51, 2.79 56.11 C0.14 48.71, -1.3 39.17, 0.76 31.54 C2.81 23.91, 8.99 15.58, 15.12 10.34 C21.26 5.09, 29.76 1.05, 37.56 0.08 C45.35 -0.88, 57.53 3.64, 61.9 4.56 C66.27 5.49, 63.85 4.9, 63.79 5.65 M23.13 5.81 C29.54 2.01, 39.19 -0.98, 47.41 -0.08 C55.64 0.83, 66.18 6.07, 72.47 11.24 C78.77 16.41, 83.07 23.66, 85.19 30.95 C87.3 38.23, 87.01 47.8, 85.17 54.96 C83.34 62.13, 80.02 68.99, 74.18 73.96 C68.35 78.92, 58.03 83.18, 50.16 84.77 C42.29 86.36, 33.97 86.53, 26.95 83.51 C19.94 80.48, 12.69 73.44, 8.08 66.61 C3.46 59.79, -0.48 50.11, -0.74 42.57 C-1 35.02, 2.49 27.92, 6.51 21.34 C10.52 14.76, 20.17 5.88, 23.36 3.07 C26.55 0.26, 25.06 3.71, 25.63 4.48" stroke="#000000" stroke-width="1" fill="none"></path></g><g stroke-linecap="round" transform="translate(188.76305835503348 86.50122147944663) rotate(0 51.13091843779341 41.76342193010609)"><path d="M38.15 1.9 C46.4 -0.71, 57.43 -0.81, 65.96 1.36 C74.49 3.53, 83.24 9.24, 89.31 14.94 C95.37 20.64, 101.13 28.05, 102.33 35.57 C103.53 43.09, 100.6 53.11, 96.5 60.07 C92.41 67.04, 85.5 73.57, 77.76 77.36 C70.03 81.14, 59.12 83.02, 50.09 82.77 C41.06 82.52, 31.33 79.82, 23.58 75.85 C15.83 71.89, 7.52 65.84, 3.6 58.97 C-0.32 52.1, -1.59 42.19, 0.07 34.64 C1.73 27.09, 6.69 19.44, 13.56 13.68 C20.43 7.92, 35.76 2.34, 41.26 0.07 C46.77 -2.2, 46.25 -0.73, 46.58 0.06 M28.38 3.75 C35.59 0, 45.78 -0.59, 55.08 0.39 C64.38 1.38, 76.88 5.01, 84.18 9.68 C91.47 14.35, 95.97 21.34, 98.85 28.43 C101.72 35.52, 103.71 45.07, 101.41 52.23 C99.11 59.39, 91.8 66.38, 85.02 71.4 C78.25 76.41, 69.57 80.8, 60.77 82.34 C51.96 83.87, 40.53 83.5, 32.19 80.59 C23.84 77.69, 15.95 71.17, 10.7 64.9 C5.44 58.64, 1.42 50.3, 0.68 42.98 C-0.06 35.66, 1.82 27.43, 6.25 20.99 C10.69 14.55, 23.45 6.77, 27.29 4.33 C31.13 1.88, 28.98 5.6, 29.31 6.31" stroke="#000000" stroke-width="1" fill="none"></path></g><g transform="translate(88.06247089739452 105.23621449482133) rotate(0 17.564055951913787 -5.8546853173046145)" stroke="none"><path fill="#000000" d="M -2.02,-1.26 Q -2.02,-1.26 -0.78,-2.98 0.45,-4.71 1.70,-6.22 2.95,-7.73 3.90,-9.14 4.86,-10.56 6.52,-11.49 8.17,-12.43 9.49,-11.88 10.82,-11.34 12.01,-9.71 13.20,-8.09 14.06,-6.20 14.92,-4.32 15.39,-2.99 15.85,-1.66 16.48,-0.43 17.11,0.79 17.54,1.61 17.97,2.42 17.98,2.75 17.99,3.09 17.92,3.41 17.85,3.74 17.70,4.04 17.56,4.34 17.34,4.60 17.13,4.85 16.86,5.05 16.59,5.25 16.28,5.37 15.97,5.50 15.64,5.55 15.31,5.60 14.98,5.57 14.65,5.54 14.33,5.43 14.02,5.32 13.74,5.14 13.46,4.96 13.23,4.72 13.00,4.47 12.84,4.18 12.67,3.89 12.59,3.57 12.50,3.25 13.03,0.24 13.56,-2.76 14.29,-5.28 15.01,-7.80 15.55,-9.73 16.09,-11.66 16.55,-12.94 17.01,-14.23 18.18,-15.19 19.35,-16.15 21.39,-16.03 23.44,-15.90 25.50,-14.38 27.57,-12.86 29.29,-10.76 31.01,-8.67 32.01,-7.39 33.01,-6.11 34.00,-4.53 35.00,-2.94 36.13,-1.19 37.26,0.55 37.37,0.92 37.48,1.28 37.46,1.67 37.44,2.05 37.30,2.41 37.16,2.76 36.91,3.06 36.67,3.35 36.34,3.55 36.02,3.75 35.64,3.83 35.27,3.92 34.89,3.88 34.51,3.84 34.16,3.68 33.81,3.53 33.53,3.26 33.25,3.00 33.07,2.67 32.88,2.33 32.82,1.95 32.76,1.57 32.81,1.19 32.87,0.82 33.05,0.48 33.23,0.14 33.50,-0.12 33.78,-0.38 34.13,-0.55 34.47,-0.71 34.85,-0.75 35.23,-0.80 35.61,-0.72 35.98,-0.64 36.31,-0.44 36.64,-0.25 36.89,0.03 37.14,0.32 37.29,0.68 37.43,1.03 37.46,1.41 37.48,1.80 37.38,2.17 37.28,2.54 37.07,2.85 36.85,3.17 36.55,3.41 36.25,3.64 35.88,3.77 35.52,3.89 35.14,3.89 34.76,3.90 34.39,3.78 34.03,3.66 33.72,3.43 33.42,3.20 33.20,2.88 32.98,2.57 32.98,2.57 32.98,2.57 31.98,0.84 30.97,-0.88 30.41,-2.34 29.85,-3.80 29.02,-5.01 28.19,-6.22 26.66,-7.86 25.13,-9.51 23.77,-10.46 22.41,-11.40 21.20,-11.06 19.99,-10.71 19.61,-8.77 19.22,-6.83 18.82,-4.47 18.42,-2.11 18.19,0.15 17.97,2.42 17.98,2.75 17.99,3.09 17.92,3.41 17.85,3.74 17.70,4.04 17.56,4.34 17.34,4.60 17.13,4.85 16.86,5.05 16.59,5.25 16.28,5.37 15.97,5.50 15.64,5.55 15.31,5.60 14.98,5.57 14.65,5.54 14.33,5.43 14.02,5.32 13.74,5.14 13.46,4.96 13.23,4.72 13.00,4.47 12.84,4.18 12.67,3.89 12.59,3.57 12.50,3.25 12.25,2.46 12.01,1.67 11.34,-0.25 10.67,-2.19 9.85,-3.65 9.02,-5.12 8.20,-6.05 7.38,-6.99 6.76,-6.09 6.13,-5.19 5.08,-3.83 4.03,-2.47 3.02,-0.60 2.02,1.26 1.84,1.48 1.66,1.71 1.43,1.88 1.20,2.05 0.93,2.17 0.67,2.28 0.39,2.33 0.10,2.38 -0.17,2.35 -0.46,2.33 -0.73,2.24 -1.01,2.15 -1.25,2.00 -1.49,1.85 -1.69,1.64 -1.89,1.44 -2.04,1.19 -2.18,0.94 -2.26,0.67 -2.35,0.39 -2.36,0.10 -2.37,-0.17 -2.32,-0.46 -2.26,-0.74 -2.14,-1.00 -2.02,-1.26 -2.02,-1.26 L -2.02,-1.26 Z"></path></g><g transform="translate(226.23304438578282 141.1449511076228) rotate(0 12.880307698070112 -8.977184153200369)" stroke="none"><path fill="#000000" d="M -2.06,-0.63 Q -2.06,-0.63 -1.05,-3.51 -0.05,-6.40 0.87,-8.57 1.81,-10.75 3.18,-12.89 4.55,-15.03 5.26,-16.21 5.97,-17.38 7.17,-18.75 8.37,-20.13 9.42,-20.45 10.47,-20.77 12.80,-20.04 15.13,-19.31 16.57,-18.54 18.01,-17.77 19.13,-16.98 20.25,-16.19 21.42,-15.14 22.59,-14.09 23.44,-13.12 24.29,-12.14 25.27,-10.22 26.26,-8.30 26.77,-7.25 27.29,-6.21 27.59,-4.87 27.89,-3.54 28.07,-1.41 28.25,0.70 28.20,1.10 28.15,1.50 27.97,1.86 27.79,2.23 27.50,2.51 27.22,2.80 26.86,2.98 26.50,3.16 26.10,3.22 25.70,3.27 25.30,3.20 24.90,3.12 24.55,2.93 24.20,2.73 23.92,2.43 23.65,2.13 23.49,1.76 23.33,1.39 23.30,0.98 23.26,0.58 23.36,0.19 23.46,-0.20 23.67,-0.54 23.89,-0.88 24.20,-1.13 24.52,-1.39 24.90,-1.53 25.28,-1.67 25.68,-1.68 26.09,-1.69 26.47,-1.57 26.86,-1.46 27.19,-1.22 27.52,-0.99 27.75,-0.66 27.99,-0.33 28.11,0.04 28.23,0.43 28.22,0.84 28.21,1.24 28.07,1.62 27.93,2.00 27.68,2.32 27.43,2.63 27.09,2.85 26.75,3.07 26.36,3.17 25.97,3.27 25.56,3.23 25.16,3.20 24.79,3.04 24.42,2.89 24.11,2.62 23.81,2.35 23.61,2.00 23.41,1.64 23.34,1.25 23.26,0.85 23.26,0.85 23.26,0.85 23.18,-0.95 23.10,-2.76 22.75,-4.45 22.40,-6.14 20.93,-8.41 19.46,-10.69 18.46,-11.63 17.45,-12.57 16.63,-13.28 15.81,-13.99 14.78,-14.64 13.76,-15.30 12.40,-15.81 11.04,-16.32 10.00,-15.81 8.96,-15.30 8.16,-14.30 7.35,-13.30 6.22,-11.38 5.10,-9.46 4.37,-7.36 3.64,-5.26 2.85,-2.31 2.06,0.63 1.95,0.87 1.84,1.10 1.68,1.31 1.53,1.51 1.32,1.68 1.12,1.84 0.88,1.94 0.64,2.05 0.39,2.10 0.13,2.15 -0.12,2.13 -0.38,2.12 -0.62,2.04 -0.87,1.96 -1.10,1.83 -1.32,1.70 -1.50,1.51 -1.69,1.33 -1.82,1.11 -1.96,0.89 -2.04,0.64 -2.11,0.39 -2.13,0.13 -2.15,-0.12 -2.10,-0.37 -2.06,-0.63 -2.06,-0.63 L -2.06,-0.63 Z"></path></g></svg>