<svg version="1.1" xmlns="http://www.w3.org/2000/svg" viewBox="0 0 308.05051761138577 281.5092775062717" width="308.05051761138577" height="281.5092775062717">
  <!-- svg-source:excalidraw -->
  
  <defs>
    <style class="style-fonts">
      @font-face {
        font-family: "Virgil";
        src: url(".//dist/excalidraw-assets/Virgil.woff2");
      }
      @font-face {
        font-family: "Cascadia";
        src: url(".//dist/excalidraw-assets/Cascadia.woff2");
      }
    </style>
  </defs>
  <rect x="0" y="0" width="308.05051761138577" height="281.5092775062717" fill="#ffffff"></rect><g stroke-linecap="round" transform="translate(10 9.999999999999972) rotate(0 85.478405632647 84.3074685691861)"><path d="M107.48 3.89 C118.55 5.61, 130.74 12.28, 139.7 19.41 C148.67 26.54, 156.04 36.51, 161.25 46.7 C166.46 56.88, 170.4 68.99, 170.96 80.53 C171.52 92.07, 168.9 105.15, 164.59 115.93 C160.27 126.71, 153.1 137.37, 145.06 145.2 C137.02 153.03, 127.04 158.97, 116.32 162.91 C105.59 166.86, 92.41 169.58, 80.71 168.85 C69.01 168.11, 56.43 163.76, 46.12 158.5 C35.81 153.23, 26.1 145.98, 18.87 137.25 C11.64 128.52, 5.87 117.15, 2.75 106.11 C-0.36 95.07, -1.64 82.38, 0.18 71.02 C2.01 59.65, 7.07 47.47, 13.71 37.93 C20.35 28.38, 30.26 19.84, 40.01 13.74 C49.76 7.65, 59.67 2.82, 72.24 1.37 C84.8 -0.09, 107.27 3.67, 115.42 5.03 C123.58 6.39, 121.58 8.15, 121.16 9.53 M72.15 0.66 C83.03 -1.98, 98.3 0.66, 109.83 3.74 C121.35 6.81, 132.33 12.11, 141.29 19.1 C150.24 26.08, 158.54 35.29, 163.55 45.67 C168.56 56.05, 171.3 69.83, 171.33 81.38 C171.36 92.94, 168.21 104.38, 163.72 115 C159.23 125.62, 152.43 137.08, 144.39 145.1 C136.35 153.13, 126.21 159.11, 115.48 163.15 C104.74 167.19, 91.41 170.18, 79.95 169.35 C68.5 168.52, 57.12 163.65, 46.74 158.2 C36.36 152.75, 25.22 145.38, 17.67 136.65 C10.12 127.92, 4.24 117.05, 1.42 105.83 C-1.39 94.62, -1.51 80.6, 0.76 69.37 C3.02 58.14, 8.46 47.88, 15.01 38.44 C21.57 29.01, 30.61 19.07, 40.07 12.75 C49.52 6.43, 66.03 2.28, 71.74 0.53 C77.45 -1.23, 73.95 0.83, 74.33 2.22" stroke="#000000" stroke-width="1" fill="none"></path></g><g stroke-linecap="round" transform="translate(131.7774545999354 24.051244761531052) rotate(0 83.1365315057252 82.7462191512382)"><path d="M72.77 -0.2 C83.35 -2.92, 96.64 0.18, 107.42 3.51 C118.2 6.85, 129.01 12.47, 137.43 19.82 C145.86 27.18, 153.14 37.38, 157.98 47.64 C162.82 57.91, 166.27 70.37, 166.47 81.4 C166.68 92.43, 163.69 103.56, 159.21 113.81 C154.72 124.07, 147.79 135.05, 139.57 142.94 C131.35 150.83, 120.35 157.31, 109.89 161.15 C99.43 164.99, 88.05 167.06, 76.81 165.99 C65.56 164.92, 52.34 160.32, 42.41 154.73 C32.49 149.14, 23.77 141.27, 17.24 132.45 C10.71 123.63, 5.94 112.5, 3.23 101.81 C0.52 91.12, -1.03 79.38, 0.99 68.32 C3.01 57.27, 8.95 44.91, 15.33 35.46 C21.7 26.01, 28.57 17.43, 39.24 11.61 C49.91 5.78, 71.38 2.13, 79.34 0.51 C87.29 -1.11, 86.81 0.61, 86.98 1.86 M66.85 1.03 C77.28 -2.34, 91.35 -1.05, 102.6 1.61 C113.86 4.26, 125.38 10.08, 134.4 16.96 C143.41 23.84, 151.17 32.85, 156.7 42.89 C162.22 52.93, 166.95 65.76, 167.53 77.17 C168.11 88.58, 164.03 100.76, 160.2 111.35 C156.37 121.94, 152.27 132.71, 144.53 140.71 C136.79 148.7, 124.52 154.96, 113.76 159.32 C103.01 163.69, 91.23 167.22, 79.99 166.9 C68.75 166.58, 56.17 162.35, 46.31 157.39 C36.44 152.43, 27.93 145.59, 20.8 137.14 C13.68 128.69, 6.89 117.52, 3.55 106.66 C0.21 95.81, -0.7 83.48, 0.78 72.02 C2.25 60.56, 6.71 47.3, 12.4 37.89 C18.09 28.48, 25.69 21.72, 34.93 15.56 C44.17 9.41, 62.32 3.31, 67.83 0.97 C73.34 -1.37, 67.66 0.02, 67.96 1.52" stroke="#000000" stroke-width="1" fill="none"></path></g><g stroke-linecap="round" transform="translate(50.59248486664512 98.21059211405586) rotate(0 90.94277859546462 86.64934269610792)"><path d="M83.88 0.72 C94.89 -1.53, 107.73 0.43, 118.82 3.67 C129.91 6.91, 141.59 12.97, 150.4 20.15 C159.2 27.33, 166.33 36.91, 171.65 46.73 C176.98 56.54, 181.38 68.09, 182.35 79.04 C183.33 89.99, 181.31 101.82, 177.52 112.44 C173.74 123.05, 167.14 134.31, 159.65 142.73 C152.17 151.14, 142.68 158.06, 132.62 162.94 C122.56 167.82, 110.91 170.96, 99.28 172.03 C87.66 173.1, 74.06 172.55, 62.86 169.37 C51.67 166.18, 40.83 159.95, 32.11 152.93 C23.39 145.91, 15.95 136.91, 10.53 127.26 C5.12 117.61, 0.66 106.16, -0.35 95.03 C-1.36 83.9, 0.87 71.21, 4.48 60.48 C8.09 49.75, 13.76 38.96, 21.31 30.65 C28.87 22.33, 38.76 15.62, 49.82 10.59 C60.87 5.55, 80.76 1.89, 87.64 0.42 C94.53 -1.04, 90.95 0.35, 91.12 1.81 M99.32 1.11 C110.54 0.61, 124.48 4.85, 134.91 9.9 C145.33 14.96, 154.63 23.03, 161.87 31.46 C169.11 39.89, 174.98 49.82, 178.33 60.5 C181.69 71.17, 183.3 84.35, 181.98 95.52 C180.67 106.68, 176.22 117.97, 170.46 127.49 C164.7 137.02, 156.45 145.53, 147.44 152.65 C138.42 159.77, 127.11 166.65, 116.39 170.2 C105.66 173.76, 94.33 175.39, 83.07 174 C71.8 172.6, 59.03 167.24, 48.79 161.84 C38.54 156.45, 29.15 149.76, 21.61 141.62 C14.06 133.49, 6.82 123.46, 3.52 113.05 C0.23 102.64, 0.64 90.4, 1.86 79.18 C3.08 67.96, 5.73 55.55, 10.86 45.73 C15.98 35.92, 23.53 27.48, 32.59 20.29 C41.65 13.09, 53.9 5.64, 65.22 2.55 C76.53 -0.53, 94.81 1.96, 100.49 1.76 C106.17 1.55, 99.71 0.08, 99.29 1.31" stroke="#000000" stroke-width="1" fill="none"></path></g><g transform="translate(42.005613067931705 54.08248021022831) rotate(0 21 14.5)"><text x="0" y="23" font-family="Helvetica, Segoe UI Emoji" font-size="20px" fill="#000000" text-anchor="start" style="white-space: pre;" direction="ltr">周一</text></g><g transform="translate(217.6461725870694 61.10810259099381) rotate(0 21 14.5)"><text x="0" y="23" font-family="Helvetica, Segoe UI Emoji" font-size="20px" fill="#000000" text-anchor="start" style="white-space: pre;" direction="ltr">周二</text></g><g transform="translate(115.38433571148258 212.54929613193917) rotate(0 21 14.5)"><text x="0" y="23" font-family="Helvetica, Segoe UI Emoji" font-size="20px" fill="#000000" text-anchor="start" style="white-space: pre;" direction="ltr">周三</text></g><g stroke-linecap="round"><g transform="translate(163.7830676678672 76.35310026278538) rotate(0 -27.58643534898156 36.952334964124645)"><path d="M0.33 -1.44 C-9.06 11.05, -45.09 62.9, -54.3 75.34 M-2.93 3.95 C-12.71 15.62, -46.66 59.35, -55.5 71.4" stroke="#000000" stroke-width="1" fill="none"></path></g></g><mask></mask><g stroke-linecap="round"><g transform="translate(186.42118422811157 152.0736970332581) rotate(0 -12.422968739849239 -36.06579060793396)"><path d="M-2.1 0 C-6.5 -11.59, -20.15 -60.17, -23.89 -72.13 M1.96 -2.47 C-3.16 -13.36, -23.37 -57.65, -26.8 -68.67" stroke="#000000" stroke-width="1" fill="none"></path></g></g><mask></mask><g stroke-linecap="round"><g transform="translate(182.51806068324188 150.51244761531018) rotate(0 -35.909327209820106 0.2201530863027017)"><path d="M-1.77 -1.53 C-14.5 -2.03, -62.45 -3.65, -74.28 -3.34 M2.46 3.82 C-9.61 3.74, -56.29 1, -69.21 -0.25" stroke="#000000" stroke-width="1" fill="none"></path></g></g><mask></mask><g stroke-linecap="round"><g transform="translate(155.1961958691538 96.64934269610794) rotate(0 -15.024684561136795 25.845116411845908)"><path d="M-2.77 1.03 C-7.34 8.89, -25.43 41.1, -29.89 48.75 M0.93 -0.89 C-3.6 7.35, -25.83 44.21, -30.98 52.58" stroke="#000000" stroke-width="1" fill="none"></path></g></g><mask></mask><g stroke-linecap="round"><g transform="translate(158.31869470504958 102.8943403678995) rotate(0 -9.592085426373266 20.374236191125064)"><path d="M2.05 -1.26 C-1.77 5.87, -17.66 35.06, -21.24 42.01 M-0.27 4.23 C-3.42 10.67, -12.64 31.58, -16.2 38.19" stroke="#000000" stroke-width="1" fill="none"></path></g></g><mask></mask><g stroke-linecap="round"><g transform="translate(166.90556650376297 116.94558512943053) rotate(0 -7.0931482643837285 15.680890449008984)"><path d="M-0.55 0.34 C-2.6 5.45, -9.47 24.98, -12.05 30.22 M-4.3 -1.94 C-6.63 3.59, -12.56 27.11, -13.63 33.31" stroke="#000000" stroke-width="1" fill="none"></path></g></g><mask></mask></svg>